# xmcd
#
# Track frame offsets:
#	150
#	12457
#	23775
#	33950
#	43206
#	56228
#	72419
#	83500
#	93632
#	102186
#	116923
#	129154
#	141684
#	155501
#	168222
#	181863
#	196635
#	212087
#	228852
#	245422
#	254586
#	266566
#	277703
#	290007
#	303102
#	313299
#	326072
#	339270
#
# Disc length: 4707 seconds
#
# Revision: 0
# Processed by: cddbd v1.5.2PL0 Copyright (c) Steve Scherf et al.
# Submitted via: dBpowerAMP V4.0
#
DISCID=9412611c
DTITLE=Los Primos de Durango - Exitos
DYEAR=2007
DGENRE=Duranguense
TTITLE0=Intro
TTITLE1=Tal Vez
TTITLE2=Antes
TTITLE3=Terco Corazon
TTITLE4=Pero Esta Vez Llore
TTITLE5=Dos Bottellas De Mezcal
TTITLE6=Me Gustas Tal Como Eres
TTITLE7=Por Un Beso
TTITLE8=El Solitario
TTITLE9=Caprichosa
TTITLE10=En La Estacion
TTITLE11=Lo Dejaron Todo
TTITLE12=Lamento de Amor
TTITLE13=Tu Fotografia
TTITLE14=Ritmo Duranguense
TTITLE15=Cama y Mesa
TTITLE16=Una Lagrima
TTITLE17=El Ausente
TTITLE18=Como Yo Te Amo
TTITLE19=Noches Tenebrosas
TTITLE20=Cumbia Sax
TTITLE21=Que Me Lleve El Diablo
TTITLE22=Nunca Voy A Olvidarte
TTITLE23=El Alacran De Durango
TTITLE24=El Chubasco
TTITLE25=De Durango A Zacatecas
TTITLE26=Me Canse De Morir Por Tu Amor
TTITLE27=Cumbia Del Indio
EXTD=Los Primos de Durango
EXTT0=
EXTT1=
EXTT2=
EXTT3=
EXTT4=
EXTT5=
EXTT6=
EXTT7=
EXTT8=
EXTT9=
EXTT10=
EXTT11=
EXTT12=
EXTT13=
EXTT14=
EXTT15=
EXTT16=
EXTT17=
EXTT18=
EXTT19=
EXTT20=
EXTT21=
EXTT22=
EXTT23=
EXTT24=
EXTT25=
EXTT26=
EXTT27=
PLAYORDER=
